<mxfile host="app.diagrams.net" modified="2020-08-01T19:42:49.225Z" agent="5.0 (X11)" etag="DT5ayRcqMSZ2H9GPLVPQ" version="13.5.8" type="github">
  <diagram name="Page-1" id="42789a77-a242-8287-6e28-9cd8cfd52e62">
    <mxGraphModel dx="3300" dy="2602" grid="0" gridSize="10" guides="1" tooltips="0" connect="1" arrows="1" fold="1" page="1" pageScale="1" pageWidth="1100" pageHeight="850" background="#ffffff" math="0" shadow="0">
      <root>
        <mxCell id="0" />
        <mxCell id="1" parent="0" />
        <mxCell id="1ea317790d2ca983-12" style="edgeStyle=none;rounded=1;html=1;labelBackgroundColor=none;startArrow=none;startFill=0;startSize=5;endArrow=classicThin;endFill=1;endSize=5;jettySize=auto;orthogonalLoop=1;strokeColor=#B3B3B3;strokeWidth=1;fontFamily=Verdana;fontSize=12" parent="1" source="1ea317790d2ca983-1" target="1ea317790d2ca983-2" edge="1">
          <mxGeometry relative="1" as="geometry" />
        </mxCell>
        <mxCell id="1ea317790d2ca983-13" value="relation" style="edgeStyle=none;rounded=1;html=1;labelBackgroundColor=none;startArrow=none;startFill=0;startSize=5;endArrow=classicThin;endFill=1;endSize=5;jettySize=auto;orthogonalLoop=1;strokeColor=#B3B3B3;strokeWidth=1;fontFamily=Verdana;fontSize=12" parent="1" source="1ea317790d2ca983-1" target="1ea317790d2ca983-9" edge="1">
          <mxGeometry relative="1" as="geometry" />
        </mxCell>
        <mxCell id="1ea317790d2ca983-14" value="relation" style="edgeStyle=none;rounded=1;html=1;labelBackgroundColor=none;startArrow=none;startFill=0;startSize=5;endArrow=classicThin;endFill=1;endSize=5;jettySize=auto;orthogonalLoop=1;strokeColor=#B3B3B3;strokeWidth=1;fontFamily=Verdana;fontSize=12" parent="1" source="1ea317790d2ca983-1" target="1ea317790d2ca983-3" edge="1">
          <mxGeometry relative="1" as="geometry" />
        </mxCell>
        <mxCell id="1ea317790d2ca983-1" value="Starting&amp;nbsp;&lt;div&gt;node&lt;/div&gt;" style="ellipse;whiteSpace=wrap;html=1;rounded=0;shadow=1;comic=0;labelBackgroundColor=none;strokeWidth=1;fontFamily=Verdana;fontSize=12;align=center;" parent="1" vertex="1">
          <mxGeometry x="1410" y="-1050" width="90" height="60" as="geometry" />
        </mxCell>
        <mxCell id="1ea317790d2ca983-21" value="relation" style="edgeStyle=none;rounded=1;html=1;labelBackgroundColor=none;startArrow=none;startFill=0;startSize=5;endArrow=classicThin;endFill=1;endSize=5;jettySize=auto;orthogonalLoop=1;strokeColor=#B3B3B3;strokeWidth=1;fontFamily=Verdana;fontSize=12" parent="1" source="1ea317790d2ca983-2" target="1ea317790d2ca983-7" edge="1">
          <mxGeometry relative="1" as="geometry" />
        </mxCell>
        <mxCell id="1ea317790d2ca983-22" value="relation" style="edgeStyle=none;rounded=1;html=1;labelBackgroundColor=none;startArrow=none;startFill=0;startSize=5;endArrow=classicThin;endFill=1;endSize=5;jettySize=auto;orthogonalLoop=1;strokeColor=#B3B3B3;strokeWidth=1;fontFamily=Verdana;fontSize=12" parent="1" source="1ea317790d2ca983-2" target="1ea317790d2ca983-6" edge="1">
          <mxGeometry relative="1" as="geometry" />
        </mxCell>
        <mxCell id="1ea317790d2ca983-2" value="&lt;span&gt;Node 2&lt;/span&gt;" style="ellipse;whiteSpace=wrap;html=1;rounded=0;shadow=1;comic=0;labelBackgroundColor=none;strokeWidth=1;fontFamily=Verdana;fontSize=12;align=center;" parent="1" vertex="1">
          <mxGeometry x="1417.5" y="-940" width="75" height="50" as="geometry" />
        </mxCell>
        <mxCell id="1ea317790d2ca983-15" value="relation" style="edgeStyle=none;rounded=1;html=1;labelBackgroundColor=none;startArrow=none;startFill=0;startSize=5;endArrow=classicThin;endFill=1;endSize=5;jettySize=auto;orthogonalLoop=1;strokeColor=#B3B3B3;strokeWidth=1;fontFamily=Verdana;fontSize=12" parent="1" source="1ea317790d2ca983-3" target="1ea317790d2ca983-4" edge="1">
          <mxGeometry relative="1" as="geometry" />
        </mxCell>
        <mxCell id="1ea317790d2ca983-3" value="&lt;span&gt;Node 3&lt;/span&gt;" style="ellipse;whiteSpace=wrap;html=1;rounded=0;shadow=1;comic=0;labelBackgroundColor=none;strokeWidth=1;fontFamily=Verdana;fontSize=12;align=center;" parent="1" vertex="1">
          <mxGeometry x="1660" y="-940" width="75" height="50" as="geometry" />
        </mxCell>
        <mxCell id="1ea317790d2ca983-16" value="relation" style="edgeStyle=none;rounded=1;html=1;labelBackgroundColor=none;startArrow=none;startFill=0;startSize=5;endArrow=classicThin;endFill=1;endSize=5;jettySize=auto;orthogonalLoop=1;strokeColor=#B3B3B3;strokeWidth=1;fontFamily=Verdana;fontSize=12" parent="1" source="1ea317790d2ca983-4" target="1ea317790d2ca983-5" edge="1">
          <mxGeometry relative="1" as="geometry" />
        </mxCell>
        <mxCell id="1ea317790d2ca983-4" value="&lt;span&gt;Node 7&lt;/span&gt;" style="ellipse;whiteSpace=wrap;html=1;rounded=0;shadow=1;comic=0;labelBackgroundColor=none;strokeWidth=1;fontFamily=Verdana;fontSize=12;align=center;" parent="1" vertex="1">
          <mxGeometry x="1660" y="-810" width="75" height="50" as="geometry" />
        </mxCell>
        <mxCell id="1ea317790d2ca983-17" value="relation" style="edgeStyle=none;rounded=1;html=1;labelBackgroundColor=none;startArrow=none;startFill=0;startSize=5;endArrow=classicThin;endFill=1;endSize=5;jettySize=auto;orthogonalLoop=1;strokeColor=#B3B3B3;strokeWidth=1;fontFamily=Verdana;fontSize=12" parent="1" source="1ea317790d2ca983-5" target="1ea317790d2ca983-8" edge="1">
          <mxGeometry relative="1" as="geometry" />
        </mxCell>
        <mxCell id="1ea317790d2ca983-5" value="&lt;span&gt;Node 9&lt;/span&gt;" style="ellipse;whiteSpace=wrap;html=1;rounded=0;shadow=1;comic=0;labelBackgroundColor=none;strokeWidth=1;fontFamily=Verdana;fontSize=12;align=center;" parent="1" vertex="1">
          <mxGeometry x="1660" y="-660" width="75" height="50" as="geometry" />
        </mxCell>
        <mxCell id="1ea317790d2ca983-23" value="relation" style="edgeStyle=none;rounded=1;html=1;labelBackgroundColor=none;startArrow=none;startFill=0;startSize=5;endArrow=classicThin;endFill=1;endSize=5;jettySize=auto;orthogonalLoop=1;strokeColor=#B3B3B3;strokeWidth=1;fontFamily=Verdana;fontSize=12" parent="1" source="1ea317790d2ca983-6" target="1ea317790d2ca983-8" edge="1">
          <mxGeometry relative="1" as="geometry" />
        </mxCell>
        <mxCell id="1ea317790d2ca983-6" value="&lt;span&gt;Node 6&lt;/span&gt;" style="ellipse;whiteSpace=wrap;html=1;rounded=0;shadow=1;comic=0;labelBackgroundColor=none;strokeWidth=1;fontFamily=Verdana;fontSize=12;align=center;" parent="1" vertex="1">
          <mxGeometry x="1510" y="-810" width="75" height="50" as="geometry" />
        </mxCell>
        <mxCell id="1ea317790d2ca983-24" value="relation" style="edgeStyle=none;rounded=1;html=1;labelBackgroundColor=none;startArrow=none;startFill=0;startSize=5;endArrow=classicThin;endFill=1;endSize=5;jettySize=auto;orthogonalLoop=1;strokeColor=#B3B3B3;strokeWidth=1;fontFamily=Verdana;fontSize=12" parent="1" source="1ea317790d2ca983-7" target="1ea317790d2ca983-8" edge="1">
          <mxGeometry relative="1" as="geometry" />
        </mxCell>
        <mxCell id="1ea317790d2ca983-7" value="&lt;span&gt;Node 5&lt;/span&gt;" style="ellipse;whiteSpace=wrap;html=1;rounded=0;shadow=1;comic=0;labelBackgroundColor=none;strokeWidth=1;fontFamily=Verdana;fontSize=12;align=center;" parent="1" vertex="1">
          <mxGeometry x="1320" y="-810" width="75" height="50" as="geometry" />
        </mxCell>
        <mxCell id="1ea317790d2ca983-8" value="End node" style="ellipse;whiteSpace=wrap;html=1;rounded=0;shadow=1;comic=0;labelBackgroundColor=none;strokeWidth=1;fontFamily=Verdana;fontSize=12;align=center;" parent="1" vertex="1">
          <mxGeometry x="1417.5" y="-620" width="75" height="50" as="geometry" />
        </mxCell>
        <mxCell id="1ea317790d2ca983-19" value="relation" style="edgeStyle=none;rounded=1;html=1;labelBackgroundColor=none;startArrow=none;startFill=0;startSize=5;endArrow=classicThin;endFill=1;endSize=5;jettySize=auto;orthogonalLoop=1;strokeColor=#B3B3B3;strokeWidth=1;fontFamily=Verdana;fontSize=12" parent="1" source="1ea317790d2ca983-9" target="1ea317790d2ca983-10" edge="1">
          <mxGeometry relative="1" as="geometry" />
        </mxCell>
        <mxCell id="1ea317790d2ca983-9" value="Node 1" style="ellipse;whiteSpace=wrap;html=1;rounded=0;shadow=1;comic=0;labelBackgroundColor=none;strokeWidth=1;fontFamily=Verdana;fontSize=12;align=center;" parent="1" vertex="1">
          <mxGeometry x="1190" y="-980" width="75" height="50" as="geometry" />
        </mxCell>
        <mxCell id="1ea317790d2ca983-20" value="relation" style="edgeStyle=none;rounded=1;html=1;labelBackgroundColor=none;startArrow=none;startFill=0;startSize=5;endArrow=classicThin;endFill=1;endSize=5;jettySize=auto;orthogonalLoop=1;strokeColor=#B3B3B3;strokeWidth=1;fontFamily=Verdana;fontSize=12" parent="1" source="1ea317790d2ca983-10" target="1ea317790d2ca983-11" edge="1">
          <mxGeometry relative="1" as="geometry" />
        </mxCell>
        <mxCell id="1ea317790d2ca983-10" value="&lt;span&gt;Node 4&lt;/span&gt;" style="ellipse;whiteSpace=wrap;html=1;rounded=0;shadow=1;comic=0;labelBackgroundColor=none;strokeWidth=1;fontFamily=Verdana;fontSize=12;align=center;" parent="1" vertex="1">
          <mxGeometry x="1170" y="-810" width="75" height="50" as="geometry" />
        </mxCell>
        <mxCell id="1ea317790d2ca983-18" value="relation" style="edgeStyle=none;rounded=1;html=1;labelBackgroundColor=none;startArrow=none;startFill=0;startSize=5;endArrow=classicThin;endFill=1;endSize=5;jettySize=auto;orthogonalLoop=1;strokeColor=#B3B3B3;strokeWidth=1;fontFamily=Verdana;fontSize=12" parent="1" source="1ea317790d2ca983-11" target="1ea317790d2ca983-8" edge="1">
          <mxGeometry relative="1" as="geometry" />
        </mxCell>
        <mxCell id="1ea317790d2ca983-11" value="&lt;span&gt;Node 8&lt;/span&gt;" style="ellipse;whiteSpace=wrap;html=1;rounded=0;shadow=1;comic=0;labelBackgroundColor=none;strokeWidth=1;fontFamily=Verdana;fontSize=12;align=center;" parent="1" vertex="1">
          <mxGeometry x="1170" y="-660" width="75" height="50" as="geometry" />
        </mxCell>
        <mxCell id="slAMN-dLhrTw4TwVvP2D-1" value="Blockly - Google" style="ellipse;whiteSpace=wrap;html=1;" parent="1" vertex="1">
          <mxGeometry x="285" y="-660" width="120" height="80" as="geometry" />
        </mxCell>
        <mxCell id="slAMN-dLhrTw4TwVvP2D-4" style="edgeStyle=orthogonalEdgeStyle;rounded=0;orthogonalLoop=1;jettySize=auto;html=1;exitX=0;exitY=0.5;exitDx=0;exitDy=0;curved=1;" parent="1" source="slAMN-dLhrTw4TwVvP2D-2" target="slAMN-dLhrTw4TwVvP2D-1" edge="1">
          <mxGeometry relative="1" as="geometry" />
        </mxCell>
        <mxCell id="slAMN-dLhrTw4TwVvP2D-5" style="edgeStyle=orthogonalEdgeStyle;curved=1;rounded=0;orthogonalLoop=1;jettySize=auto;html=1;exitX=0.5;exitY=1;exitDx=0;exitDy=0;" parent="1" source="slAMN-dLhrTw4TwVvP2D-2" target="slAMN-dLhrTw4TwVvP2D-3" edge="1">
          <mxGeometry relative="1" as="geometry" />
        </mxCell>
        <mxCell id="slAMN-dLhrTw4TwVvP2D-8" style="edgeStyle=orthogonalEdgeStyle;curved=1;rounded=0;orthogonalLoop=1;jettySize=auto;html=1;exitX=1;exitY=1;exitDx=0;exitDy=0;entryX=0.426;entryY=-0.017;entryDx=0;entryDy=0;entryPerimeter=0;" parent="1" source="slAMN-dLhrTw4TwVvP2D-2" target="slAMN-dLhrTw4TwVvP2D-7" edge="1">
          <mxGeometry relative="1" as="geometry" />
        </mxCell>
        <mxCell id="slAMN-dLhrTw4TwVvP2D-9" style="edgeStyle=orthogonalEdgeStyle;curved=1;rounded=0;orthogonalLoop=1;jettySize=auto;html=1;exitX=1;exitY=0.5;exitDx=0;exitDy=0;" parent="1" source="slAMN-dLhrTw4TwVvP2D-2" target="slAMN-dLhrTw4TwVvP2D-6" edge="1">
          <mxGeometry relative="1" as="geometry" />
        </mxCell>
        <mxCell id="slAMN-dLhrTw4TwVvP2D-36" style="edgeStyle=orthogonalEdgeStyle;curved=1;rounded=0;orthogonalLoop=1;jettySize=auto;html=1;exitX=0.5;exitY=0;exitDx=0;exitDy=0;fontSize=12;" parent="1" source="slAMN-dLhrTw4TwVvP2D-2" target="slAMN-dLhrTw4TwVvP2D-35" edge="1">
          <mxGeometry relative="1" as="geometry" />
        </mxCell>
        <mxCell id="pHknpPbmpQpy8_Fl4xR6-15" style="edgeStyle=orthogonalEdgeStyle;curved=1;rounded=0;orthogonalLoop=1;jettySize=auto;html=1;exitX=0;exitY=0;exitDx=0;exitDy=0;" edge="1" parent="1" source="slAMN-dLhrTw4TwVvP2D-2" target="pHknpPbmpQpy8_Fl4xR6-14">
          <mxGeometry relative="1" as="geometry" />
        </mxCell>
        <mxCell id="slAMN-dLhrTw4TwVvP2D-2" value="Cisco Academy" style="ellipse;whiteSpace=wrap;html=1;fillColor=#d5e8d4;strokeColor=#82b366;" parent="1" vertex="1">
          <mxGeometry x="450" y="-753" width="120" height="80" as="geometry" />
        </mxCell>
        <mxCell id="slAMN-dLhrTw4TwVvP2D-3" value="Python - The Zen Of Python" style="ellipse;whiteSpace=wrap;html=1;" parent="1" vertex="1">
          <mxGeometry x="395" y="-530" width="120" height="80" as="geometry" />
        </mxCell>
        <mxCell id="slAMN-dLhrTw4TwVvP2D-6" value="CLI&lt;br style=&quot;font-size: 40px;&quot;&gt;Linux" style="ellipse;whiteSpace=wrap;html=1;fontSize=40;" parent="1" vertex="1">
          <mxGeometry x="615" y="-660" width="188.5" height="124" as="geometry" />
        </mxCell>
        <mxCell id="slAMN-dLhrTw4TwVvP2D-7" value="Packet Tracer" style="ellipse;whiteSpace=wrap;html=1;" parent="1" vertex="1">
          <mxGeometry x="478.31" y="-471.46" width="144" height="92" as="geometry" />
        </mxCell>
        <mxCell id="slAMN-dLhrTw4TwVvP2D-10" value="W3Scools" style="ellipse;whiteSpace=wrap;html=1;" parent="1" vertex="1">
          <mxGeometry x="50" y="-410" width="120" height="80" as="geometry" />
        </mxCell>
        <mxCell id="slAMN-dLhrTw4TwVvP2D-11" value="MDN" style="ellipse;whiteSpace=wrap;html=1;" parent="1" vertex="1">
          <mxGeometry x="130" y="-540" width="120" height="80" as="geometry" />
        </mxCell>
        <mxCell id="slAMN-dLhrTw4TwVvP2D-12" value="javascript.info" style="ellipse;whiteSpace=wrap;html=1;" parent="1" vertex="1">
          <mxGeometry x="110" y="-290" width="120" height="80" as="geometry" />
        </mxCell>
        <mxCell id="slAMN-dLhrTw4TwVvP2D-13" value="" style="endArrow=none;html=1;" parent="1" source="slAMN-dLhrTw4TwVvP2D-11" target="slAMN-dLhrTw4TwVvP2D-10" edge="1">
          <mxGeometry width="50" height="50" relative="1" as="geometry">
            <mxPoint x="470" y="-280" as="sourcePoint" />
            <mxPoint x="520" y="-330" as="targetPoint" />
          </mxGeometry>
        </mxCell>
        <mxCell id="slAMN-dLhrTw4TwVvP2D-14" value="" style="endArrow=none;html=1;" parent="1" source="slAMN-dLhrTw4TwVvP2D-10" target="slAMN-dLhrTw4TwVvP2D-12" edge="1">
          <mxGeometry width="50" height="50" relative="1" as="geometry">
            <mxPoint x="470" y="-280" as="sourcePoint" />
            <mxPoint x="520" y="-330" as="targetPoint" />
          </mxGeometry>
        </mxCell>
        <mxCell id="slAMN-dLhrTw4TwVvP2D-17" style="edgeStyle=orthogonalEdgeStyle;curved=1;rounded=0;orthogonalLoop=1;jettySize=auto;html=1;exitX=0;exitY=0.5;exitDx=0;exitDy=0;" parent="1" source="slAMN-dLhrTw4TwVvP2D-15" target="slAMN-dLhrTw4TwVvP2D-12" edge="1">
          <mxGeometry relative="1" as="geometry" />
        </mxCell>
        <mxCell id="slAMN-dLhrTw4TwVvP2D-19" style="edgeStyle=orthogonalEdgeStyle;curved=1;rounded=0;orthogonalLoop=1;jettySize=auto;html=1;exitX=1;exitY=0.5;exitDx=0;exitDy=0;" parent="1" source="slAMN-dLhrTw4TwVvP2D-15" target="slAMN-dLhrTw4TwVvP2D-18" edge="1">
          <mxGeometry relative="1" as="geometry" />
        </mxCell>
        <mxCell id="slAMN-dLhrTw4TwVvP2D-15" value="React" style="ellipse;whiteSpace=wrap;html=1;" parent="1" vertex="1">
          <mxGeometry x="270" y="-260" width="120" height="80" as="geometry" />
        </mxCell>
        <mxCell id="slAMN-dLhrTw4TwVvP2D-18" value="Tania Rascia" style="ellipse;whiteSpace=wrap;html=1;" parent="1" vertex="1">
          <mxGeometry x="395" y="-340" width="120" height="80" as="geometry" />
        </mxCell>
        <mxCell id="slAMN-dLhrTw4TwVvP2D-37" style="edgeStyle=orthogonalEdgeStyle;curved=1;rounded=0;orthogonalLoop=1;jettySize=auto;html=1;exitX=0;exitY=0.5;exitDx=0;exitDy=0;fontSize=12;" parent="1" source="slAMN-dLhrTw4TwVvP2D-21" target="slAMN-dLhrTw4TwVvP2D-10" edge="1">
          <mxGeometry relative="1" as="geometry" />
        </mxCell>
        <mxCell id="slAMN-dLhrTw4TwVvP2D-38" style="edgeStyle=orthogonalEdgeStyle;curved=1;rounded=0;orthogonalLoop=1;jettySize=auto;html=1;fontSize=12;exitX=0.5;exitY=0;exitDx=0;exitDy=0;" parent="1" source="slAMN-dLhrTw4TwVvP2D-21" target="slAMN-dLhrTw4TwVvP2D-11" edge="1">
          <mxGeometry relative="1" as="geometry" />
        </mxCell>
        <mxCell id="slAMN-dLhrTw4TwVvP2D-39" style="edgeStyle=orthogonalEdgeStyle;curved=1;rounded=0;orthogonalLoop=1;jettySize=auto;html=1;exitX=0.5;exitY=1;exitDx=0;exitDy=0;fontSize=12;" parent="1" source="slAMN-dLhrTw4TwVvP2D-21" target="slAMN-dLhrTw4TwVvP2D-12" edge="1">
          <mxGeometry relative="1" as="geometry" />
        </mxCell>
        <mxCell id="slAMN-dLhrTw4TwVvP2D-21" value="&lt;font style=&quot;font-size: 40px&quot;&gt;JavaScript&lt;/font&gt;" style="ellipse;whiteSpace=wrap;html=1;fillColor=#f8cecc;strokeColor=#b85450;" parent="1" vertex="1">
          <mxGeometry x="227" y="-467" width="206" height="137" as="geometry" />
        </mxCell>
        <mxCell id="slAMN-dLhrTw4TwVvP2D-23" value="&lt;h1&gt;Mi Ruta&lt;br&gt;&lt;/h1&gt;&lt;p&gt;Aquí debo agregar lo que estoy haciendo, las web que son mis cursos, lo que estoy aprendiento. etx. Para tener un panoramo Global&lt;br&gt;&lt;/p&gt;" style="text;html=1;strokeColor=none;fillColor=none;spacing=5;spacingTop=-20;whiteSpace=wrap;overflow=hidden;rounded=0;" parent="1" vertex="1">
          <mxGeometry x="820" y="-545" width="190" height="120" as="geometry" />
        </mxCell>
        <UserObject label="Blender" link="blender.org/" id="slAMN-dLhrTw4TwVvP2D-24">
          <mxCell style="ellipse;whiteSpace=wrap;html=1;" parent="1" vertex="1">
            <mxGeometry x="610" y="-350" width="120" height="80" as="geometry" />
          </mxCell>
        </UserObject>
        <mxCell id="slAMN-dLhrTw4TwVvP2D-26" style="edgeStyle=orthogonalEdgeStyle;curved=1;rounded=0;orthogonalLoop=1;jettySize=auto;html=1;exitX=0;exitY=0.5;exitDx=0;exitDy=0;" parent="1" source="slAMN-dLhrTw4TwVvP2D-25" target="slAMN-dLhrTw4TwVvP2D-24" edge="1">
          <mxGeometry relative="1" as="geometry" />
        </mxCell>
        <mxCell id="slAMN-dLhrTw4TwVvP2D-25" value="Raquel" style="ellipse;whiteSpace=wrap;html=1;fillColor=#ffe6cc;strokeColor=#d79b00;" parent="1" vertex="1">
          <mxGeometry x="855" y="-340" width="120" height="80" as="geometry" />
        </mxCell>
        <mxCell id="slAMN-dLhrTw4TwVvP2D-27" value="GIMP" style="ellipse;whiteSpace=wrap;html=1;" parent="1" vertex="1">
          <mxGeometry x="1035" y="-176" width="120" height="80" as="geometry" />
        </mxCell>
        <mxCell id="slAMN-dLhrTw4TwVvP2D-28" value="Inkscape" style="ellipse;whiteSpace=wrap;html=1;" parent="1" vertex="1">
          <mxGeometry x="770" y="-140" width="120" height="80" as="geometry" />
        </mxCell>
        <mxCell id="slAMN-dLhrTw4TwVvP2D-29" value="" style="endArrow=none;html=1;" parent="1" source="slAMN-dLhrTw4TwVvP2D-27" target="slAMN-dLhrTw4TwVvP2D-28" edge="1">
          <mxGeometry width="50" height="50" relative="1" as="geometry">
            <mxPoint x="570" y="-320" as="sourcePoint" />
            <mxPoint x="620" y="-370" as="targetPoint" />
          </mxGeometry>
        </mxCell>
        <mxCell id="slAMN-dLhrTw4TwVvP2D-30" value="Altitude" style="ellipse;whiteSpace=wrap;html=1;" parent="1" vertex="1">
          <mxGeometry x="130" y="-890" width="120" height="80" as="geometry" />
        </mxCell>
        <mxCell id="slAMN-dLhrTw4TwVvP2D-31" value="Julio 2020" style="text;html=1;strokeColor=none;fillColor=none;align=center;verticalAlign=middle;whiteSpace=wrap;rounded=0;strokeWidth=1;fontSize=50;" parent="1" vertex="1">
          <mxGeometry x="820" y="-1160" width="247" height="100" as="geometry" />
        </mxCell>
        <mxCell id="slAMN-dLhrTw4TwVvP2D-33" style="edgeStyle=orthogonalEdgeStyle;curved=1;rounded=0;orthogonalLoop=1;jettySize=auto;html=1;exitX=0;exitY=0.5;exitDx=0;exitDy=0;fontSize=12;" parent="1" source="slAMN-dLhrTw4TwVvP2D-32" target="slAMN-dLhrTw4TwVvP2D-30" edge="1">
          <mxGeometry relative="1" as="geometry" />
        </mxCell>
        <mxCell id="slAMN-dLhrTw4TwVvP2D-32" value="Steam" style="ellipse;whiteSpace=wrap;html=1;strokeWidth=1;fontSize=12;" parent="1" vertex="1">
          <mxGeometry x="230" y="-1050" width="120" height="80" as="geometry" />
        </mxCell>
        <mxCell id="pHknpPbmpQpy8_Fl4xR6-13" style="edgeStyle=orthogonalEdgeStyle;curved=1;rounded=0;orthogonalLoop=1;jettySize=auto;html=1;exitX=0.5;exitY=1;exitDx=0;exitDy=0;" edge="1" parent="1" source="slAMN-dLhrTw4TwVvP2D-34" target="slAMN-dLhrTw4TwVvP2D-45">
          <mxGeometry relative="1" as="geometry" />
        </mxCell>
        <mxCell id="slAMN-dLhrTw4TwVvP2D-34" value="IoT" style="ellipse;whiteSpace=wrap;html=1;strokeWidth=1;fontSize=12;" parent="1" vertex="1">
          <mxGeometry x="57" y="-778" width="120" height="80" as="geometry" />
        </mxCell>
        <mxCell id="slAMN-dLhrTw4TwVvP2D-35" value="Senati, InfoUnsa entre otras brindan Certificación CCNA" style="ellipse;whiteSpace=wrap;html=1;strokeWidth=1;fontSize=12;" parent="1" vertex="1">
          <mxGeometry x="625" y="-800" width="120" height="80" as="geometry" />
        </mxCell>
        <mxCell id="slAMN-dLhrTw4TwVvP2D-40" value="COLORS" style="ellipse;whiteSpace=wrap;html=1;strokeWidth=1;fontSize=12;" parent="1" vertex="1">
          <mxGeometry x="740" y="10" width="120" height="80" as="geometry" />
        </mxCell>
        <mxCell id="slAMN-dLhrTw4TwVvP2D-42" style="edgeStyle=orthogonalEdgeStyle;curved=1;rounded=0;orthogonalLoop=1;jettySize=auto;html=1;exitX=0;exitY=0.5;exitDx=0;exitDy=0;fontSize=12;" parent="1" source="slAMN-dLhrTw4TwVvP2D-41" target="slAMN-dLhrTw4TwVvP2D-40" edge="1">
          <mxGeometry relative="1" as="geometry" />
        </mxCell>
        <mxCell id="LZi_NBClu0qJmh4EY3yg-9" style="edgeStyle=orthogonalEdgeStyle;curved=1;rounded=0;orthogonalLoop=1;jettySize=auto;html=1;" parent="1" source="slAMN-dLhrTw4TwVvP2D-41" target="LZi_NBClu0qJmh4EY3yg-7" edge="1">
          <mxGeometry relative="1" as="geometry" />
        </mxCell>
        <mxCell id="LZi_NBClu0qJmh4EY3yg-20" style="edgeStyle=orthogonalEdgeStyle;curved=1;rounded=0;orthogonalLoop=1;jettySize=auto;html=1;" parent="1" source="slAMN-dLhrTw4TwVvP2D-41" target="LZi_NBClu0qJmh4EY3yg-19" edge="1">
          <mxGeometry relative="1" as="geometry" />
        </mxCell>
        <mxCell id="slAMN-dLhrTw4TwVvP2D-41" value="Jhoselyn" style="ellipse;whiteSpace=wrap;html=1;strokeWidth=1;fontSize=12;fillColor=#ffe6cc;strokeColor=#d79b00;" parent="1" vertex="1">
          <mxGeometry x="890" y="70" width="120" height="80" as="geometry" />
        </mxCell>
        <mxCell id="slAMN-dLhrTw4TwVvP2D-49" style="edgeStyle=orthogonalEdgeStyle;curved=1;rounded=0;orthogonalLoop=1;jettySize=auto;html=1;exitX=0.5;exitY=1;exitDx=0;exitDy=0;fontSize=12;" parent="1" source="slAMN-dLhrTw4TwVvP2D-43" target="slAMN-dLhrTw4TwVvP2D-44" edge="1">
          <mxGeometry relative="1" as="geometry" />
        </mxCell>
        <mxCell id="slAMN-dLhrTw4TwVvP2D-50" style="rounded=0;orthogonalLoop=1;jettySize=auto;html=1;exitX=1;exitY=0.5;exitDx=0;exitDy=0;fontSize=12;edgeStyle=orthogonalEdgeStyle;curved=1;" parent="1" source="slAMN-dLhrTw4TwVvP2D-43" target="slAMN-dLhrTw4TwVvP2D-46" edge="1">
          <mxGeometry relative="1" as="geometry" />
        </mxCell>
        <mxCell id="slAMN-dLhrTw4TwVvP2D-53" style="edgeStyle=orthogonalEdgeStyle;curved=1;rounded=0;orthogonalLoop=1;jettySize=auto;html=1;exitX=1;exitY=0;exitDx=0;exitDy=0;fontSize=12;" parent="1" source="slAMN-dLhrTw4TwVvP2D-43" target="slAMN-dLhrTw4TwVvP2D-52" edge="1">
          <mxGeometry relative="1" as="geometry" />
        </mxCell>
        <mxCell id="slAMN-dLhrTw4TwVvP2D-60" style="edgeStyle=orthogonalEdgeStyle;curved=1;rounded=0;orthogonalLoop=1;jettySize=auto;html=1;exitX=0.5;exitY=0;exitDx=0;exitDy=0;entryX=0.5;entryY=0;entryDx=0;entryDy=0;fontSize=12;" parent="1" source="slAMN-dLhrTw4TwVvP2D-43" target="slAMN-dLhrTw4TwVvP2D-54" edge="1">
          <mxGeometry relative="1" as="geometry" />
        </mxCell>
        <mxCell id="slAMN-dLhrTw4TwVvP2D-72" style="edgeStyle=orthogonalEdgeStyle;curved=1;rounded=0;orthogonalLoop=1;jettySize=auto;html=1;exitX=1;exitY=1;exitDx=0;exitDy=0;fontSize=12;" parent="1" source="slAMN-dLhrTw4TwVvP2D-43" target="slAMN-dLhrTw4TwVvP2D-59" edge="1">
          <mxGeometry relative="1" as="geometry" />
        </mxCell>
        <mxCell id="slAMN-dLhrTw4TwVvP2D-43" value="ArchLinux" style="ellipse;whiteSpace=wrap;html=1;strokeWidth=1;fontSize=12;" parent="1" vertex="1">
          <mxGeometry x="471" y="-174" width="170" height="120" as="geometry" />
        </mxCell>
        <mxCell id="slAMN-dLhrTw4TwVvP2D-44" value="QTile" style="ellipse;whiteSpace=wrap;html=1;strokeWidth=1;fontSize=12;" parent="1" vertex="1">
          <mxGeometry x="40" y="160" width="170" height="110" as="geometry" />
        </mxCell>
        <mxCell id="slAMN-dLhrTw4TwVvP2D-48" style="edgeStyle=orthogonalEdgeStyle;curved=1;rounded=0;orthogonalLoop=1;jettySize=auto;html=1;exitX=0.5;exitY=1;exitDx=0;exitDy=0;fontSize=12;" parent="1" source="slAMN-dLhrTw4TwVvP2D-45" target="slAMN-dLhrTw4TwVvP2D-44" edge="1">
          <mxGeometry relative="1" as="geometry" />
        </mxCell>
        <mxCell id="slAMN-dLhrTw4TwVvP2D-45" value="Python" style="ellipse;whiteSpace=wrap;html=1;strokeWidth=1;fontSize=40;fillColor=#f8cecc;strokeColor=#b85450;" parent="1" vertex="1">
          <mxGeometry x="-207" y="-400" width="120" height="80" as="geometry" />
        </mxCell>
        <mxCell id="slAMN-dLhrTw4TwVvP2D-51" style="edgeStyle=orthogonalEdgeStyle;curved=1;rounded=0;orthogonalLoop=1;jettySize=auto;html=1;exitX=0.5;exitY=1;exitDx=0;exitDy=0;fontSize=12;" parent="1" source="slAMN-dLhrTw4TwVvP2D-46" target="slAMN-dLhrTw4TwVvP2D-47" edge="1">
          <mxGeometry relative="1" as="geometry" />
        </mxCell>
        <mxCell id="slAMN-dLhrTw4TwVvP2D-46" value="KDE" style="ellipse;whiteSpace=wrap;html=1;strokeWidth=1;fontSize=12;" parent="1" vertex="1">
          <mxGeometry x="395" y="210" width="120" height="80" as="geometry" />
        </mxCell>
        <mxCell id="slAMN-dLhrTw4TwVvP2D-47" value="Plasma" style="ellipse;whiteSpace=wrap;html=1;strokeWidth=1;fontSize=12;" parent="1" vertex="1">
          <mxGeometry x="230" y="320" width="120" height="80" as="geometry" />
        </mxCell>
        <mxCell id="slAMN-dLhrTw4TwVvP2D-52" value="Xfce4" style="ellipse;whiteSpace=wrap;html=1;strokeWidth=1;fontSize=12;" parent="1" vertex="1">
          <mxGeometry x="505" y="80" width="120" height="80" as="geometry" />
        </mxCell>
        <mxCell id="slAMN-dLhrTw4TwVvP2D-61" style="edgeStyle=orthogonalEdgeStyle;curved=1;rounded=0;orthogonalLoop=1;jettySize=auto;html=1;exitX=1;exitY=0.5;exitDx=0;exitDy=0;fontSize=12;" parent="1" source="slAMN-dLhrTw4TwVvP2D-54" target="slAMN-dLhrTw4TwVvP2D-58" edge="1">
          <mxGeometry relative="1" as="geometry" />
        </mxCell>
        <mxCell id="slAMN-dLhrTw4TwVvP2D-62" style="edgeStyle=orthogonalEdgeStyle;curved=1;rounded=0;orthogonalLoop=1;jettySize=auto;html=1;exitX=1;exitY=1;exitDx=0;exitDy=0;fontSize=12;" parent="1" source="slAMN-dLhrTw4TwVvP2D-54" target="slAMN-dLhrTw4TwVvP2D-55" edge="1">
          <mxGeometry relative="1" as="geometry" />
        </mxCell>
        <mxCell id="slAMN-dLhrTw4TwVvP2D-63" style="edgeStyle=orthogonalEdgeStyle;curved=1;rounded=0;orthogonalLoop=1;jettySize=auto;html=1;exitX=0.5;exitY=1;exitDx=0;exitDy=0;fontSize=12;" parent="1" source="slAMN-dLhrTw4TwVvP2D-54" target="slAMN-dLhrTw4TwVvP2D-57" edge="1">
          <mxGeometry relative="1" as="geometry" />
        </mxCell>
        <mxCell id="slAMN-dLhrTw4TwVvP2D-54" value="" style="ellipse;whiteSpace=wrap;html=1;strokeWidth=1;fontSize=12;" parent="1" vertex="1">
          <mxGeometry x="660" y="240" width="20" height="20" as="geometry" />
        </mxCell>
        <mxCell id="slAMN-dLhrTw4TwVvP2D-55" value="thunar" style="ellipse;whiteSpace=wrap;html=1;strokeWidth=1;fontSize=12;" parent="1" vertex="1">
          <mxGeometry x="855" y="270" width="75" height="50" as="geometry" />
        </mxCell>
        <mxCell id="slAMN-dLhrTw4TwVvP2D-57" value="htop" style="ellipse;whiteSpace=wrap;html=1;strokeWidth=1;fontSize=12;" parent="1" vertex="1">
          <mxGeometry x="690" y="375" width="75" height="50" as="geometry" />
        </mxCell>
        <mxCell id="slAMN-dLhrTw4TwVvP2D-58" value="screenfetch" style="ellipse;whiteSpace=wrap;html=1;strokeWidth=1;fontSize=12;" parent="1" vertex="1">
          <mxGeometry x="780" y="200" width="75" height="50" as="geometry" />
        </mxCell>
        <mxCell id="slAMN-dLhrTw4TwVvP2D-59" value="Bash" style="ellipse;whiteSpace=wrap;html=1;strokeWidth=1;fontSize=12;" parent="1" vertex="1">
          <mxGeometry x="110" y="390" width="120" height="80" as="geometry" />
        </mxCell>
        <mxCell id="slAMN-dLhrTw4TwVvP2D-65" value="Conversación en la Catedral" style="ellipse;whiteSpace=wrap;html=1;strokeWidth=1;fontSize=12;" parent="1" vertex="1">
          <mxGeometry x="293" y="600" width="120" height="80" as="geometry" />
        </mxCell>
        <mxCell id="slAMN-dLhrTw4TwVvP2D-68" style="edgeStyle=orthogonalEdgeStyle;curved=1;rounded=0;orthogonalLoop=1;jettySize=auto;html=1;exitX=0;exitY=0.5;exitDx=0;exitDy=0;fontSize=12;" parent="1" source="slAMN-dLhrTw4TwVvP2D-66" target="slAMN-dLhrTw4TwVvP2D-67" edge="1">
          <mxGeometry relative="1" as="geometry" />
        </mxCell>
        <mxCell id="slAMN-dLhrTw4TwVvP2D-69" style="edgeStyle=orthogonalEdgeStyle;curved=1;rounded=0;orthogonalLoop=1;jettySize=auto;html=1;exitX=0;exitY=1;exitDx=0;exitDy=0;fontSize=12;" parent="1" source="slAMN-dLhrTw4TwVvP2D-66" target="slAMN-dLhrTw4TwVvP2D-65" edge="1">
          <mxGeometry relative="1" as="geometry" />
        </mxCell>
        <mxCell id="slAMN-dLhrTw4TwVvP2D-66" value="MVLL" style="ellipse;whiteSpace=wrap;html=1;strokeWidth=1;fontSize=12;" parent="1" vertex="1">
          <mxGeometry x="490" y="520" width="120" height="80" as="geometry" />
        </mxCell>
        <mxCell id="slAMN-dLhrTw4TwVvP2D-67" value="Cinco Esquinas" style="ellipse;whiteSpace=wrap;html=1;strokeWidth=1;fontSize=12;" parent="1" vertex="1">
          <mxGeometry x="275" y="480" width="120" height="80" as="geometry" />
        </mxCell>
        <mxCell id="slAMN-dLhrTw4TwVvP2D-70" value="Julio Verne" style="ellipse;whiteSpace=wrap;html=1;strokeWidth=1;fontSize=12;" parent="1" vertex="1">
          <mxGeometry x="637" y="540" width="120" height="80" as="geometry" />
        </mxCell>
        <mxCell id="slAMN-dLhrTw4TwVvP2D-71" value="García Marquez" style="ellipse;whiteSpace=wrap;html=1;strokeWidth=1;fontSize=12;" parent="1" vertex="1">
          <mxGeometry x="752" y="490" width="120" height="80" as="geometry" />
        </mxCell>
        <mxCell id="slAMN-dLhrTw4TwVvP2D-73" value="" style="endArrow=none;html=1;fontSize=12;" parent="1" source="slAMN-dLhrTw4TwVvP2D-66" target="slAMN-dLhrTw4TwVvP2D-70" edge="1">
          <mxGeometry width="50" height="50" relative="1" as="geometry">
            <mxPoint x="490" y="600" as="sourcePoint" />
            <mxPoint x="540" y="550" as="targetPoint" />
          </mxGeometry>
        </mxCell>
        <mxCell id="slAMN-dLhrTw4TwVvP2D-74" value="" style="endArrow=none;html=1;fontSize=12;" parent="1" source="slAMN-dLhrTw4TwVvP2D-70" target="slAMN-dLhrTw4TwVvP2D-71" edge="1">
          <mxGeometry width="50" height="50" relative="1" as="geometry">
            <mxPoint x="490" y="470" as="sourcePoint" />
            <mxPoint x="540" y="420" as="targetPoint" />
          </mxGeometry>
        </mxCell>
        <mxCell id="slAMN-dLhrTw4TwVvP2D-75" value="&lt;font style=&quot;font-size: 30px&quot;&gt;Leer la Documentación es bueno.&lt;/font&gt;" style="text;html=1;strokeColor=none;fillColor=none;align=center;verticalAlign=middle;whiteSpace=wrap;rounded=0;fontSize=12;" parent="1" vertex="1">
          <mxGeometry x="680" y="-1020" width="340" height="70" as="geometry" />
        </mxCell>
        <mxCell id="slAMN-dLhrTw4TwVvP2D-76" value="CSS" style="ellipse;whiteSpace=wrap;html=1;strokeWidth=1;fontSize=12;" parent="1" vertex="1">
          <mxGeometry y="-510" width="120" height="80" as="geometry" />
        </mxCell>
        <mxCell id="slAMN-dLhrTw4TwVvP2D-77" value="HTML" style="ellipse;whiteSpace=wrap;html=1;strokeWidth=1;fontSize=12;" parent="1" vertex="1">
          <mxGeometry x="-50" y="-320" width="120" height="80" as="geometry" />
        </mxCell>
        <mxCell id="slAMN-dLhrTw4TwVvP2D-83" style="edgeStyle=orthogonalEdgeStyle;curved=1;rounded=0;orthogonalLoop=1;jettySize=auto;html=1;exitX=0;exitY=0;exitDx=0;exitDy=0;fontSize=12;" parent="1" source="slAMN-dLhrTw4TwVvP2D-78" target="slAMN-dLhrTw4TwVvP2D-79" edge="1">
          <mxGeometry relative="1" as="geometry" />
        </mxCell>
        <mxCell id="slAMN-dLhrTw4TwVvP2D-84" style="edgeStyle=orthogonalEdgeStyle;curved=1;rounded=0;orthogonalLoop=1;jettySize=auto;html=1;exitX=0;exitY=0.5;exitDx=0;exitDy=0;fontSize=12;" parent="1" source="slAMN-dLhrTw4TwVvP2D-78" target="slAMN-dLhrTw4TwVvP2D-80" edge="1">
          <mxGeometry relative="1" as="geometry" />
        </mxCell>
        <mxCell id="slAMN-dLhrTw4TwVvP2D-85" style="edgeStyle=orthogonalEdgeStyle;curved=1;rounded=0;orthogonalLoop=1;jettySize=auto;html=1;exitX=0;exitY=1;exitDx=0;exitDy=0;fontSize=12;" parent="1" source="slAMN-dLhrTw4TwVvP2D-78" target="slAMN-dLhrTw4TwVvP2D-82" edge="1">
          <mxGeometry relative="1" as="geometry" />
        </mxCell>
        <mxCell id="slAMN-dLhrTw4TwVvP2D-78" value="Node.js" style="ellipse;whiteSpace=wrap;html=1;strokeWidth=1;fontSize=12;" parent="1" vertex="1">
          <mxGeometry x="-390" y="-480" width="120" height="80" as="geometry" />
        </mxCell>
        <mxCell id="slAMN-dLhrTw4TwVvP2D-79" value="Express" style="ellipse;whiteSpace=wrap;html=1;strokeWidth=1;fontSize=12;" parent="1" vertex="1">
          <mxGeometry x="-540" y="-545" width="90" height="55" as="geometry" />
        </mxCell>
        <mxCell id="slAMN-dLhrTw4TwVvP2D-80" value="EJS" style="ellipse;whiteSpace=wrap;html=1;strokeWidth=1;fontSize=12;" parent="1" vertex="1">
          <mxGeometry x="-595" y="-450" width="90" height="55" as="geometry" />
        </mxCell>
        <mxCell id="slAMN-dLhrTw4TwVvP2D-82" value="?" style="ellipse;whiteSpace=wrap;html=1;strokeWidth=1;fontSize=12;" parent="1" vertex="1">
          <mxGeometry x="-540" y="-360" width="90" height="55" as="geometry" />
        </mxCell>
        <mxCell id="slAMN-dLhrTw4TwVvP2D-87" style="edgeStyle=orthogonalEdgeStyle;curved=1;rounded=0;orthogonalLoop=1;jettySize=auto;html=1;exitX=0.5;exitY=1;exitDx=0;exitDy=0;fontSize=12;" parent="1" source="slAMN-dLhrTw4TwVvP2D-86" target="slAMN-dLhrTw4TwVvP2D-78" edge="1">
          <mxGeometry relative="1" as="geometry" />
        </mxCell>
        <mxCell id="slAMN-dLhrTw4TwVvP2D-86" value="Fazt" style="ellipse;whiteSpace=wrap;html=1;strokeWidth=1;fontSize=12;fillColor=#ffe6cc;strokeColor=#d79b00;" parent="1" vertex="1">
          <mxGeometry x="-570" y="-240" width="120" height="80" as="geometry" />
        </mxCell>
        <mxCell id="slAMN-dLhrTw4TwVvP2D-88" value="" style="endArrow=none;html=1;fontSize=12;" parent="1" source="slAMN-dLhrTw4TwVvP2D-77" target="slAMN-dLhrTw4TwVvP2D-76" edge="1">
          <mxGeometry width="50" height="50" relative="1" as="geometry">
            <mxPoint x="-220" y="-280" as="sourcePoint" />
            <mxPoint x="-170" y="-330" as="targetPoint" />
          </mxGeometry>
        </mxCell>
        <mxCell id="slAMN-dLhrTw4TwVvP2D-89" value="" style="endArrow=none;html=1;fontSize=12;" parent="1" source="slAMN-dLhrTw4TwVvP2D-77" target="slAMN-dLhrTw4TwVvP2D-21" edge="1">
          <mxGeometry width="50" height="50" relative="1" as="geometry">
            <mxPoint x="-170" y="-280" as="sourcePoint" />
            <mxPoint x="-170" y="-330" as="targetPoint" />
          </mxGeometry>
        </mxCell>
        <mxCell id="slAMN-dLhrTw4TwVvP2D-91" value="Duolingo" style="ellipse;whiteSpace=wrap;html=1;strokeWidth=1;fontSize=12;" parent="1" vertex="1">
          <mxGeometry x="-220" y="425" width="120" height="80" as="geometry" />
        </mxCell>
        <mxCell id="slAMN-dLhrTw4TwVvP2D-92" value="SoleLearn" style="ellipse;whiteSpace=wrap;html=1;strokeWidth=1;fontSize=12;" parent="1" vertex="1">
          <mxGeometry x="-360" y="220" width="120" height="80" as="geometry" />
        </mxCell>
        <mxCell id="slAMN-dLhrTw4TwVvP2D-96" style="edgeStyle=orthogonalEdgeStyle;curved=1;rounded=0;orthogonalLoop=1;jettySize=auto;html=1;exitX=1;exitY=1;exitDx=0;exitDy=0;fontSize=12;" parent="1" source="slAMN-dLhrTw4TwVvP2D-93" target="slAMN-dLhrTw4TwVvP2D-92" edge="1">
          <mxGeometry relative="1" as="geometry" />
        </mxCell>
        <mxCell id="slAMN-dLhrTw4TwVvP2D-97" style="edgeStyle=orthogonalEdgeStyle;curved=1;rounded=0;orthogonalLoop=1;jettySize=auto;html=1;exitX=0.5;exitY=0;exitDx=0;exitDy=0;fontSize=12;" parent="1" source="slAMN-dLhrTw4TwVvP2D-93" target="slAMN-dLhrTw4TwVvP2D-86" edge="1">
          <mxGeometry relative="1" as="geometry" />
        </mxCell>
        <mxCell id="LZi_NBClu0qJmh4EY3yg-13" style="edgeStyle=orthogonalEdgeStyle;curved=1;rounded=0;orthogonalLoop=1;jettySize=auto;html=1;" parent="1" source="slAMN-dLhrTw4TwVvP2D-93" target="LZi_NBClu0qJmh4EY3yg-12" edge="1">
          <mxGeometry relative="1" as="geometry" />
        </mxCell>
        <mxCell id="LZi_NBClu0qJmh4EY3yg-16" style="edgeStyle=orthogonalEdgeStyle;curved=1;rounded=0;orthogonalLoop=1;jettySize=auto;html=1;" parent="1" source="slAMN-dLhrTw4TwVvP2D-93" target="LZi_NBClu0qJmh4EY3yg-15" edge="1">
          <mxGeometry relative="1" as="geometry" />
        </mxCell>
        <mxCell id="LZi_NBClu0qJmh4EY3yg-17" style="edgeStyle=orthogonalEdgeStyle;curved=1;rounded=0;orthogonalLoop=1;jettySize=auto;html=1;exitX=0;exitY=0;exitDx=0;exitDy=0;" parent="1" source="slAMN-dLhrTw4TwVvP2D-93" target="LZi_NBClu0qJmh4EY3yg-14" edge="1">
          <mxGeometry relative="1" as="geometry" />
        </mxCell>
        <mxCell id="slAMN-dLhrTw4TwVvP2D-93" value="Youtubers geniales" style="ellipse;whiteSpace=wrap;html=1;strokeWidth=1;fontSize=12;" parent="1" vertex="1">
          <mxGeometry x="-640" y="10" width="120" height="80" as="geometry" />
        </mxCell>
        <mxCell id="slAMN-dLhrTw4TwVvP2D-95" style="edgeStyle=orthogonalEdgeStyle;curved=1;rounded=0;orthogonalLoop=1;jettySize=auto;html=1;exitX=0.5;exitY=1;exitDx=0;exitDy=0;fontSize=12;" parent="1" source="slAMN-dLhrTw4TwVvP2D-94" target="slAMN-dLhrTw4TwVvP2D-92" edge="1">
          <mxGeometry relative="1" as="geometry" />
        </mxCell>
        <mxCell id="slAMN-dLhrTw4TwVvP2D-98" style="edgeStyle=orthogonalEdgeStyle;curved=1;rounded=0;orthogonalLoop=1;jettySize=auto;html=1;exitX=1;exitY=1;exitDx=0;exitDy=0;fontSize=12;" parent="1" source="slAMN-dLhrTw4TwVvP2D-94" target="slAMN-dLhrTw4TwVvP2D-91" edge="1">
          <mxGeometry relative="1" as="geometry" />
        </mxCell>
        <mxCell id="slAMN-dLhrTw4TwVvP2D-94" value="ME" style="ellipse;whiteSpace=wrap;html=1;strokeWidth=1;fontSize=50;" parent="1" vertex="1">
          <mxGeometry x="-278" y="-44" width="188" height="114" as="geometry" />
        </mxCell>
        <mxCell id="LZi_NBClu0qJmh4EY3yg-4" style="edgeStyle=orthogonalEdgeStyle;curved=1;rounded=0;orthogonalLoop=1;jettySize=auto;html=1;" parent="1" source="LZi_NBClu0qJmh4EY3yg-1" target="LZi_NBClu0qJmh4EY3yg-2" edge="1">
          <mxGeometry relative="1" as="geometry" />
        </mxCell>
        <mxCell id="LZi_NBClu0qJmh4EY3yg-1" value="Git" style="ellipse;whiteSpace=wrap;html=1;" parent="1" vertex="1">
          <mxGeometry x="-370" y="-830" width="120" height="80" as="geometry" />
        </mxCell>
        <mxCell id="LZi_NBClu0qJmh4EY3yg-2" value="GitHub" style="ellipse;whiteSpace=wrap;html=1;" parent="1" vertex="1">
          <mxGeometry x="-160" y="-955" width="120" height="80" as="geometry" />
        </mxCell>
        <mxCell id="LZi_NBClu0qJmh4EY3yg-6" style="edgeStyle=orthogonalEdgeStyle;curved=1;rounded=0;orthogonalLoop=1;jettySize=auto;html=1;" parent="1" source="LZi_NBClu0qJmh4EY3yg-5" target="LZi_NBClu0qJmh4EY3yg-2" edge="1">
          <mxGeometry relative="1" as="geometry" />
        </mxCell>
        <mxCell id="LZi_NBClu0qJmh4EY3yg-5" value="jean.net.pe" style="ellipse;whiteSpace=wrap;html=1;" parent="1" vertex="1">
          <mxGeometry x="-420" y="-1010" width="120" height="80" as="geometry" />
        </mxCell>
        <mxCell id="LZi_NBClu0qJmh4EY3yg-7" value="Behance" style="ellipse;whiteSpace=wrap;html=1;" parent="1" vertex="1">
          <mxGeometry x="960" y="-80" width="90" height="60" as="geometry" />
        </mxCell>
        <mxCell id="LZi_NBClu0qJmh4EY3yg-10" value="Anki" style="ellipse;whiteSpace=wrap;html=1;strokeWidth=1;fontSize=12;" parent="1" vertex="1">
          <mxGeometry x="-450" y="424.78" width="120" height="80" as="geometry" />
        </mxCell>
        <mxCell id="LZi_NBClu0qJmh4EY3yg-11" value="" style="endArrow=none;html=1;fontSize=12;" parent="1" source="LZi_NBClu0qJmh4EY3yg-10" target="slAMN-dLhrTw4TwVvP2D-91" edge="1">
          <mxGeometry width="50" height="50" relative="1" as="geometry">
            <mxPoint x="617.9158708006532" y="580.4509842046292" as="sourcePoint" />
            <mxPoint x="717.2254568979492" y="599.20695348643" as="targetPoint" />
          </mxGeometry>
        </mxCell>
        <mxCell id="LZi_NBClu0qJmh4EY3yg-12" value="Diego Saul Reyna" style="ellipse;whiteSpace=wrap;html=1;strokeWidth=1;fontSize=12;" parent="1" vertex="1">
          <mxGeometry x="-750" y="190" width="120" height="80" as="geometry" />
        </mxCell>
        <mxCell id="LZi_NBClu0qJmh4EY3yg-14" value="Ed.team" style="ellipse;whiteSpace=wrap;html=1;strokeWidth=1;fontSize=12;" parent="1" vertex="1">
          <mxGeometry x="-880" y="-110" width="120" height="80" as="geometry" />
        </mxCell>
        <mxCell id="LZi_NBClu0qJmh4EY3yg-15" value="Platzi" style="ellipse;whiteSpace=wrap;html=1;strokeWidth=1;fontSize=12;" parent="1" vertex="1">
          <mxGeometry x="-920" y="60" width="120" height="80" as="geometry" />
        </mxCell>
        <mxCell id="LZi_NBClu0qJmh4EY3yg-21" style="edgeStyle=orthogonalEdgeStyle;curved=1;rounded=0;orthogonalLoop=1;jettySize=auto;html=1;exitX=0.5;exitY=0;exitDx=0;exitDy=0;" parent="1" source="LZi_NBClu0qJmh4EY3yg-19" target="slAMN-dLhrTw4TwVvP2D-27" edge="1">
          <mxGeometry relative="1" as="geometry" />
        </mxCell>
        <mxCell id="LZi_NBClu0qJmh4EY3yg-19" value="Diseño" style="ellipse;whiteSpace=wrap;html=1;" parent="1" vertex="1">
          <mxGeometry x="1016" y="7" width="90" height="60" as="geometry" />
        </mxCell>
        <mxCell id="LZi_NBClu0qJmh4EY3yg-22" value="" style="endArrow=none;html=1;edgeStyle=orthogonalEdgeStyle;curved=1;" parent="1" source="slAMN-dLhrTw4TwVvP2D-6" target="slAMN-dLhrTw4TwVvP2D-43" edge="1">
          <mxGeometry width="50" height="50" relative="1" as="geometry">
            <mxPoint x="642.2671984606611" y="-200.5393551455204" as="sourcePoint" />
            <mxPoint x="495.00289593695675" y="-179.99584944594858" as="targetPoint" />
          </mxGeometry>
        </mxCell>
        <mxCell id="pHknpPbmpQpy8_Fl4xR6-2" style="edgeStyle=orthogonalEdgeStyle;rounded=0;orthogonalLoop=1;jettySize=auto;html=1;exitX=0.5;exitY=1;exitDx=0;exitDy=0;curved=1;" edge="1" parent="1" source="pHknpPbmpQpy8_Fl4xR6-1" target="slAMN-dLhrTw4TwVvP2D-2">
          <mxGeometry relative="1" as="geometry" />
        </mxCell>
        <mxCell id="pHknpPbmpQpy8_Fl4xR6-1" value="indiegogo.com" style="ellipse;whiteSpace=wrap;html=1;strokeWidth=1;fontSize=12;" vertex="1" parent="1">
          <mxGeometry x="455" y="-995" width="120" height="80" as="geometry" />
        </mxCell>
        <mxCell id="pHknpPbmpQpy8_Fl4xR6-3" value="&lt;div&gt;crowdfunder.com&lt;/div&gt;" style="ellipse;whiteSpace=wrap;html=1;strokeWidth=1;fontSize=12;" vertex="1" parent="1">
          <mxGeometry x="525" y="-1114" width="120" height="80" as="geometry" />
        </mxCell>
        <mxCell id="pHknpPbmpQpy8_Fl4xR6-4" value="kickstarter.com" style="ellipse;whiteSpace=wrap;html=1;strokeWidth=1;fontSize=12;" vertex="1" parent="1">
          <mxGeometry x="430" y="-1240" width="120" height="80" as="geometry" />
        </mxCell>
        <mxCell id="pHknpPbmpQpy8_Fl4xR6-6" value="" style="endArrow=none;html=1;fontSize=12;" edge="1" parent="1" source="pHknpPbmpQpy8_Fl4xR6-1" target="pHknpPbmpQpy8_Fl4xR6-3">
          <mxGeometry width="50" height="50" relative="1" as="geometry">
            <mxPoint x="353.7609686185339" y="-834.5666303094224" as="sourcePoint" />
            <mxPoint x="336.23108707108275" y="-944.9997818831446" as="targetPoint" />
          </mxGeometry>
        </mxCell>
        <mxCell id="pHknpPbmpQpy8_Fl4xR6-7" value="" style="endArrow=none;html=1;fontSize=12;" edge="1" parent="1" source="pHknpPbmpQpy8_Fl4xR6-3" target="pHknpPbmpQpy8_Fl4xR6-4">
          <mxGeometry width="50" height="50" relative="1" as="geometry">
            <mxPoint x="546.3597196555197" y="-982.3795093971589" as="sourcePoint" />
            <mxPoint x="572.9879081221698" y="-1026.7890827779527" as="targetPoint" />
          </mxGeometry>
        </mxCell>
        <mxCell id="pHknpPbmpQpy8_Fl4xR6-9" style="edgeStyle=orthogonalEdgeStyle;curved=1;rounded=0;orthogonalLoop=1;jettySize=auto;html=1;exitX=0.5;exitY=1;exitDx=0;exitDy=0;" edge="1" parent="1" source="pHknpPbmpQpy8_Fl4xR6-8" target="pHknpPbmpQpy8_Fl4xR6-4">
          <mxGeometry relative="1" as="geometry" />
        </mxCell>
        <mxCell id="pHknpPbmpQpy8_Fl4xR6-19" style="edgeStyle=orthogonalEdgeStyle;curved=1;rounded=0;orthogonalLoop=1;jettySize=auto;html=1;exitX=0;exitY=0.5;exitDx=0;exitDy=0;" edge="1" parent="1" source="pHknpPbmpQpy8_Fl4xR6-8" target="pHknpPbmpQpy8_Fl4xR6-16">
          <mxGeometry relative="1" as="geometry" />
        </mxCell>
        <mxCell id="pHknpPbmpQpy8_Fl4xR6-23" style="edgeStyle=orthogonalEdgeStyle;curved=1;rounded=0;orthogonalLoop=1;jettySize=auto;html=1;exitX=0;exitY=1;exitDx=0;exitDy=0;" edge="1" parent="1" source="pHknpPbmpQpy8_Fl4xR6-8" target="pHknpPbmpQpy8_Fl4xR6-22">
          <mxGeometry relative="1" as="geometry" />
        </mxCell>
        <mxCell id="pHknpPbmpQpy8_Fl4xR6-8" value="&lt;div&gt;Prototipos&lt;/div&gt;&lt;div&gt;1 día. 45 min&lt;br&gt;&lt;/div&gt;" style="ellipse;whiteSpace=wrap;html=1;strokeWidth=1;fontSize=12;" vertex="1" parent="1">
          <mxGeometry x="598" y="-1360" width="120" height="80" as="geometry" />
        </mxCell>
        <mxCell id="pHknpPbmpQpy8_Fl4xR6-10" style="edgeStyle=orthogonalEdgeStyle;curved=1;rounded=0;orthogonalLoop=1;jettySize=auto;html=1;exitX=0.5;exitY=1;exitDx=0;exitDy=0;" edge="1" parent="1" source="slAMN-dLhrTw4TwVvP2D-34" target="slAMN-dLhrTw4TwVvP2D-2">
          <mxGeometry relative="1" as="geometry" />
        </mxCell>
        <mxCell id="pHknpPbmpQpy8_Fl4xR6-12" style="edgeStyle=orthogonalEdgeStyle;curved=1;rounded=0;orthogonalLoop=1;jettySize=auto;html=1;exitX=1;exitY=0.5;exitDx=0;exitDy=0;" edge="1" parent="1" source="pHknpPbmpQpy8_Fl4xR6-11" target="slAMN-dLhrTw4TwVvP2D-34">
          <mxGeometry relative="1" as="geometry" />
        </mxCell>
        <mxCell id="pHknpPbmpQpy8_Fl4xR6-11" value="Facebook" style="ellipse;whiteSpace=wrap;html=1;strokeWidth=1;fontSize=12;" vertex="1" parent="1">
          <mxGeometry x="-195" y="-698" width="120" height="80" as="geometry" />
        </mxCell>
        <mxCell id="pHknpPbmpQpy8_Fl4xR6-14" value="&lt;a href=&quot;http://makezine.com/&quot; target=&quot;_blank&quot;&gt;makezine.com&lt;/a&gt;. " style="ellipse;whiteSpace=wrap;html=1;strokeWidth=1;fontSize=12;" vertex="1" parent="1">
          <mxGeometry x="313" y="-910" width="120" height="80" as="geometry" />
        </mxCell>
        <mxCell id="pHknpPbmpQpy8_Fl4xR6-16" value="lego mindstorms" style="ellipse;whiteSpace=wrap;html=1;strokeWidth=1;fontSize=12;" vertex="1" parent="1">
          <mxGeometry x="350" y="-1377" width="120" height="80" as="geometry" />
        </mxCell>
        <mxCell id="pHknpPbmpQpy8_Fl4xR6-17" value="https://www.makerbot.com/" style="ellipse;whiteSpace=wrap;html=1;strokeWidth=1;fontSize=12;" vertex="1" parent="1">
          <mxGeometry x="135" y="-1350" width="120" height="80" as="geometry" />
        </mxCell>
        <mxCell id="pHknpPbmpQpy8_Fl4xR6-18" value="http://www.meccano.com/" style="ellipse;whiteSpace=wrap;html=1;strokeWidth=1;fontSize=12;" vertex="1" parent="1">
          <mxGeometry x="187" y="-1469" width="120" height="80" as="geometry" />
        </mxCell>
        <mxCell id="pHknpPbmpQpy8_Fl4xR6-20" value="" style="endArrow=none;html=1;fontSize=12;" edge="1" parent="1" source="pHknpPbmpQpy8_Fl4xR6-16" target="pHknpPbmpQpy8_Fl4xR6-18">
          <mxGeometry width="50" height="50" relative="1" as="geometry">
            <mxPoint x="568.4331812527453" y="-1099.8652053087935" as="sourcePoint" />
            <mxPoint x="527.1178875912819" y="-1154.3185689588406" as="targetPoint" />
          </mxGeometry>
        </mxCell>
        <mxCell id="pHknpPbmpQpy8_Fl4xR6-21" value="" style="endArrow=none;html=1;fontSize=12;" edge="1" parent="1" source="pHknpPbmpQpy8_Fl4xR6-18" target="pHknpPbmpQpy8_Fl4xR6-17">
          <mxGeometry width="50" height="50" relative="1" as="geometry">
            <mxPoint x="373.96067883437763" y="-1352.6504789351325" as="sourcePoint" />
            <mxPoint x="302.7047313192311" y="-1393.084946159199" as="targetPoint" />
          </mxGeometry>
        </mxCell>
        <mxCell id="pHknpPbmpQpy8_Fl4xR6-22" value="arduino.cc" style="ellipse;whiteSpace=wrap;html=1;strokeWidth=1;fontSize=12;" vertex="1" parent="1">
          <mxGeometry x="173" y="-1194" width="120" height="80" as="geometry" />
        </mxCell>
      </root>
    </mxGraphModel>
  </diagram>
</mxfile>
